<?xml version="1.0" encoding="UTF-8" standalone="no"?>
<!DOCTYPE svg PUBLIC "-//W3C//DTD SVG 1.1//EN" "http://www.w3.org/Graphics/SVG/1.1/DTD/svg11.dtd">
<!-- Created with Vectornator (http://vectornator.io/) -->
<svg height="100%" stroke-miterlimit="10" style="fill-rule:nonzero;clip-rule:evenodd;stroke-linecap:round;stroke-linejoin:round;" version="1.1" viewBox="0 0 400 400" width="100%" xml:space="preserve" xmlns="http://www.w3.org/2000/svg" xmlns:vectornator="http://vectornator.io" xmlns:xlink="http://www.w3.org/1999/xlink" fill="#7ed445">
<defs/>
<g id="Layer-1" vectornator:layerName="Layer 1">
<g opacity="1">
<path d="M270.653 164.909C245.915 164.52 220.904 166.884 210.947 172.174C172.363 191.466 161.763 246.23 186.656 297.261C207.193 340.201 228.276 354.301 269.972 354.923C301.088 354.923 307.485 353.052 324.91 335.627C349.181 311.356 367.135 272.993 367.135 244.366C367.135 219.473 349.701 187.059 328.542 173.99C319.83 168.389 295.39 165.298 270.653 164.909Z"  fill-rule="nonzero" opacity="1" stroke="none"/>
<path d="M110.833 107.928C105.28 108.434 99.6215 109.765 94.4873 111.787C84.5301 115.521 68.3803 147.14 68.3803 163.32C68.3804 170.166 60.9746 187.087 52.2621 200.778C6.83245 268.612 45.9153 356.285 120.594 356.285C142.998 356.285 186.656 337.697 186.656 328.362C186.656 326.495 180.957 313.39 173.489 299.077C158.554 269.828 156.217 229.237 168.041 201.232C177.998 176.339 172.299 140.9 154.874 122.23C144.606 111.495 127.489 106.411 110.833 107.928Z"  fill-rule="nonzero" opacity="1" stroke="none"/>
<path d="M109.367 43.8626C108.123 44.7183 108.089 49.2839 107.778 58.6187C107.778 78.5333 122.726 104.68 129.572 97.2117C132.061 94.7226 132.574 86.6865 130.707 78.5963C128.217 70.5056 122.746 58.6538 117.767 51.8082C113.1 45.8961 110.612 43.0069 109.367 43.8626Z"  fill-rule="nonzero" opacity="1" stroke="none"/>
<path d="M254.937 113.622C251.359 111.91 248.808 115.041 248.808 124.064C248.808 137.133 264.942 161.448 269.921 155.847C271.788 153.98 270.476 143.498 266.742 132.918C263.008 122.027 258.516 115.333 254.937 113.622Z"  fill-rule="nonzero" opacity="1" stroke="none"/>
</g>
</g>
</svg>
